<svg role="img" viewBox="0 0 24 24" xmlns="http://www.w3.org/2000/svg" id="Bigbluebutton--Streamline-Simple-Icons" height="24" width="24">
  <desc>
    Bigbluebutton Streamline Icon: https://streamlinehq.com
  </desc>
  <title>BigBlueButton</title>
  <path d="M12 0A12 12 0 0 0 0 12a12 12 0 0 0 12 12 12 12 0 0 0 12 -12A12 12 0 0 0 12 0zM6.838 4.516c0.743 0 1.378 0.364 1.904 1.091 0.526 0.728 0.787 1.602 0.787 2.625v6.76c0 0.539 0.27 0.809 0.809 0.809h4.174c0.538 0 0.808 -0.27 0.808 -0.809v-3.205c0 -0.52 -0.27 -0.788 -0.808 -0.807h-0.807c-1.041 -0.036 -1.923 -0.308 -2.64 -0.816 -0.719 -0.507 -1.077 -1.133 -1.077 -1.877h4.524c0.97 0 1.796 0.342 2.478 1.024a3.374 3.374 0 0 1 1.024 2.476v3.205c0 0.97 -0.342 1.797 -1.024 2.479 -0.682 0.682 -1.509 1.021 -2.478 1.021h-4.174c-0.97 0 -1.795 -0.339 -2.477 -1.021a3.376 3.376 0 0 1 -1.023 -2.479V4.516Z" fill="#000000" stroke-width="1"></path>
</svg>